<?xml version="1.0" encoding="utf-8"?>
<!-- Svg Vector Icons : http://www.onlinewebfonts.com/icon -->
<!DOCTYPE svg PUBLIC "-//W3C//DTD SVG 1.1//EN" "http://www.w3.org/Graphics/SVG/1.1/DTD/svg11.dtd">
<svg version="1.1" xmlns="http://www.w3.org/2000/svg" xmlns:xlink="http://www.w3.org/1999/xlink" x="0px" y="0px" viewBox="0 0 1000 1000" enable-background="new 0 0 1000 1000" xml:space="preserve">
<metadata> Svg Vector Icons : http://www.onlinewebfonts.com/icon </metadata>
<g><path d="M958.4,833.2L739.5,634.3c-18.6-16.8-23.3-44-11.6-66.1c35-66.5,51-144.7,40.5-227.2C747.5,177.2,618.2,42.3,455.2,15.6C194.8-27.1-27.2,194.7,15.2,455.1c26.6,162.8,161,292,324.6,313.3c82.4,10.7,160.3-5,226.8-39.8c21.9-11.4,48.7-6.8,65.5,11.4L838,962.3c36,38.8,100.3,36,134.1-6.5C1001.4,919.1,993.1,864.8,958.4,833.2L958.4,833.2z M108,391c0-156.1,126.6-282.7,282.7-282.7c156.2,0,282.7,126.5,282.7,282.7c0,156.1-126.5,282.7-282.7,282.7C234.6,673.7,108,547.2,108,391z M521.6,355.5h-80.5c-8.5,0-15.5-6.9-15.5-15.5v-80.5c0-12.2-9.9-22.1-22.1-22.1H378c-12.2,0-22.1,9.9-22.1,22.1V340c0,8.6-6.9,15.5-15.5,15.5h-80.5c-12.2,0-22.1,9.9-22.1,22.1v25.6c0,12.2,9.9,22,22.1,22h80.5c8.5,0,15.5,6.9,15.5,15.5v80.5c0,12.2,9.9,22.1,22.1,22.1h25.5c12.2,0,22.1-9.9,22.1-22.1v-80.5c0-8.5,6.9-15.5,15.5-15.5h80.5c12.2,0,22.1-9.9,22.1-22v-25.6C543.6,365.4,533.7,355.5,521.6,355.5z"/></g>
</svg>